<svg width="285" height="284" viewBox="0 0 285 284" fill="none" xmlns="http://www.w3.org/2000/svg">
  <g>
<path d="M144.695 39.4338L147.328 11.8391L154.06 12.4814L151.427 40.0761L144.695 39.4338ZM148.978 29.9276L149.5 24.4504L164.928 25.9225L164.406 31.3996L148.978 29.9276ZM150.131 17.8444L150.673 12.1583L167.564 13.77L167.022 19.4561L150.131 17.8444Z" fill="url(#paint0_linear_3_144)"/>
<path d="M168.901 43.7067C167.72 43.3558 166.724 42.826 165.912 42.1174C165.127 41.4168 164.581 40.5533 164.272 39.527C163.999 38.4817 164.057 37.3015 164.448 35.9864C164.871 34.5638 165.518 33.5148 166.391 32.8394C167.29 32.1719 168.304 31.7576 169.433 31.5964C170.596 31.4164 171.76 31.3825 172.924 31.4948C174.116 31.615 175.232 31.7422 176.273 31.8762C177.34 32.0183 178.176 32.1059 178.779 32.1392C179.41 32.1805 179.886 32.1028 180.207 31.9062C180.555 31.7175 180.793 31.4085 180.921 30.9791C181.064 30.4959 181.067 30.044 180.929 29.6233C180.826 29.1838 180.574 28.8022 180.174 28.4788C179.781 28.1285 179.25 27.8536 178.579 27.6542C177.881 27.4469 177.187 27.3722 176.498 27.4304C175.836 27.4965 175.21 27.7341 174.621 28.1433C174.067 28.5336 173.6 29.1249 173.218 29.917L167.872 26.9702C168.478 25.7188 169.225 24.7286 170.113 23.9994C171.009 23.2435 172.002 22.7058 173.09 22.3865C174.178 22.0672 175.308 21.9503 176.48 22.0357C177.687 22.1023 178.921 22.323 180.183 22.6979C181.793 23.1764 183.116 23.7884 184.15 24.534C185.212 25.2875 185.994 26.192 186.499 27.2473C187.038 28.2838 187.298 29.4712 187.28 30.8096C187.289 32.1559 187.046 33.6611 186.552 35.3251L185.535 38.7473C185.256 39.6867 184.986 40.6435 184.726 41.6177C184.474 42.5651 184.221 43.5124 183.969 44.4598C183.744 45.4152 183.528 46.3879 183.321 47.3781L177.644 45.6913C177.787 44.9158 177.95 44.0733 178.132 43.1636C178.35 42.2351 178.593 41.2703 178.861 40.2693L178.257 40.0898C177.662 41.1105 176.87 41.956 175.882 42.6264C174.921 43.3048 173.838 43.7568 172.631 43.9826C171.46 44.1895 170.217 44.0975 168.901 43.7067ZM173.095 39.9142C173.552 40.0498 174.059 40.1129 174.616 40.1033C175.182 40.067 175.745 39.9422 176.305 39.7288C176.865 39.5155 177.399 39.1923 177.908 38.7591C178.416 38.326 178.845 37.7671 179.195 37.0823L179.872 34.6547L180.774 35.0104C180.268 35.2397 179.705 35.3645 179.086 35.3849C178.466 35.4053 177.814 35.3869 177.13 35.3297C176.481 35.2536 175.828 35.1909 175.171 35.1417C174.522 35.0656 173.914 35.0457 173.348 35.0821C172.809 35.1264 172.344 35.2657 171.953 35.5001C171.589 35.7424 171.319 36.1588 171.144 36.7493C170.929 37.474 170.999 38.1228 171.354 38.6958C171.737 39.2768 172.317 39.6829 173.095 39.9142Z" fill="url(#paint1_linear_3_144)"/>
<path d="M182.99 47.8632L187.835 38.0769L192.829 27.9895L197.873 30.4866L194.407 37.6754L195.009 37.9736C196.117 36.1786 197.182 34.847 198.206 33.979C199.229 33.1109 200.26 32.6373 201.299 32.5581C202.376 32.4662 203.504 32.7122 204.683 33.2961C204.984 33.4451 205.285 33.6255 205.587 33.8372C205.888 34.0489 206.19 34.3232 206.492 34.6601L203.023 41.0976C202.658 40.6357 202.262 40.2366 201.835 39.9001C201.408 39.5637 200.994 39.2961 200.592 39.0974C199.664 38.6377 198.774 38.4471 197.923 38.5256C197.072 38.6041 196.259 38.9516 195.485 39.5683C194.736 40.1973 194.026 41.0954 193.355 42.2626L189.087 50.8821L182.99 47.8632Z" fill="url(#paint2_linear_3_144)"/>
<path d="M196.098 54.7929L212.481 29.7261L218.106 33.4026L201.723 58.4694L196.098 54.7929Z" fill="url(#paint3_linear_3_144)"/>
<path d="M211.622 67.3251C210.176 66.0445 209.084 64.7225 208.346 63.359C207.63 62.0142 207.229 60.65 207.145 59.2667C207.1 57.8809 207.344 56.5073 207.876 55.1459C208.429 53.8031 209.272 52.4923 210.404 51.2134C211.517 49.9555 212.744 48.9287 214.084 48.1331C215.424 47.3374 216.802 46.837 218.218 46.6318C219.655 46.4452 221.101 46.5853 222.558 47.052C224.014 47.5188 225.413 48.3461 226.755 49.5339C228.118 50.7403 229.098 52.0195 229.696 53.3716C230.334 54.7213 230.597 56.1136 230.486 57.5485C230.375 58.9834 229.916 60.4098 229.11 61.8275C228.343 63.2428 227.237 64.6193 225.791 65.957L213.006 54.8635L215.373 52.1904L224.918 60.4164L222.338 60.5437C223.354 59.6488 224.035 58.7743 224.38 57.9202C224.743 57.0451 224.823 56.2369 224.619 55.4956C224.434 54.7333 224.016 54.0644 223.366 53.4891C222.611 52.8209 221.796 52.454 220.919 52.3884C220.042 52.3227 219.133 52.5467 218.193 53.0601C217.27 53.5526 216.336 54.3335 215.39 55.4027C213.886 57.1009 213.127 58.6348 213.111 60.0044C213.116 61.3926 213.706 62.6064 214.88 63.6457C215.425 64.1283 215.94 64.4539 216.427 64.6227C216.913 64.7914 217.374 64.8626 217.808 64.8361C218.262 64.7887 218.68 64.6541 219.063 64.4325C219.467 64.2293 219.839 63.9786 220.178 63.6803L224.035 68.3846C223.283 69.0651 222.452 69.6016 221.544 69.9941C220.675 70.3842 219.705 70.5722 218.633 70.5581C217.6 70.5416 216.494 70.2916 215.314 69.808C214.153 69.3034 212.922 68.4758 211.622 67.3251Z" fill="url(#paint4_linear_3_144)"/>
<path d="M219.118 73.5993L229.563 65.7559L236.851 60.2832L240.18 64.7164L234.294 69.1887L234.698 69.7261C236.4 68.8682 237.922 68.3549 239.266 68.1861C240.61 68.0173 241.797 68.1762 242.828 68.6628C243.898 69.155 244.853 69.9608 245.694 71.0803C246.467 72.1103 246.944 73.118 247.124 74.1035C247.304 75.089 247.268 76.0438 247.016 76.9679C246.787 77.8753 246.385 78.7379 245.808 79.5559C245.232 80.3738 244.574 81.1302 243.836 81.825C243.114 82.5423 242.372 83.1867 241.611 83.7583L232.106 90.8956L228.021 85.4548L236.887 78.7968C237.29 78.4941 237.743 78.1186 238.247 77.6703C238.768 77.2444 239.218 76.7486 239.599 76.1827C239.979 75.6169 240.194 75.0176 240.244 74.3848C240.294 73.7519 240.059 73.0885 239.538 72.3944C238.949 71.6107 238.207 71.1352 237.311 70.9677C236.415 70.8002 235.387 70.924 234.228 71.3391C233.108 71.7598 231.899 72.4577 230.601 73.4329L223.178 79.0065L219.118 73.5993Z" fill="url(#paint5_linear_3_144)"/>
<path d="M235.073 99.6353C234.432 98.2968 233.972 97.0115 233.692 95.7794C233.413 94.5473 233.313 93.3997 233.394 92.3365C233.512 91.2865 233.829 90.3276 234.345 89.4598C234.873 88.6172 235.618 87.9036 236.58 87.3189L240.379 91.4605C239.858 91.8649 239.455 92.384 239.169 93.0178C238.882 93.6516 238.763 94.3759 238.812 95.1908C238.886 95.9936 239.159 96.8875 239.63 97.8724C240.078 98.8068 240.573 99.4853 241.117 99.9079C241.673 100.356 242.241 100.441 242.822 100.163C243.201 99.9812 243.438 99.6972 243.532 99.3106C243.626 98.924 243.617 98.3853 243.503 97.6945C243.415 96.9917 243.242 96.1121 242.985 95.0557C242.73 93.874 242.499 92.7116 242.293 91.5684C242.113 90.4132 242.056 89.3226 242.124 88.2968C242.217 87.2589 242.514 86.3248 243.017 85.4943C243.52 84.6638 244.327 83.9825 245.438 83.4505C246.726 82.8339 248 82.6428 249.261 82.8773C250.534 83.1371 251.744 83.784 252.891 84.818C254.05 85.8774 255.065 87.3162 255.936 89.1346C256.71 90.7509 257.177 92.3118 257.34 93.8175C257.527 95.311 257.359 96.6795 256.837 97.9229C256.352 99.1795 255.464 100.21 254.173 101.015L250.491 96.6307C251.073 96.29 251.494 95.8401 251.754 95.281C252.039 94.7098 252.156 94.0793 252.106 93.3897C252.08 92.6879 251.88 91.9456 251.505 91.1627C251.058 90.2282 250.543 89.5744 249.961 89.2013C249.416 88.8413 248.903 88.7761 248.424 89.0059C248.02 89.1993 247.757 89.5267 247.637 89.988C247.553 90.4625 247.58 91.0704 247.718 91.8117C247.856 92.5529 248.04 93.4578 248.273 94.5263C248.555 95.5706 248.781 96.6265 248.951 97.6939C249.133 98.7866 249.19 99.8458 249.122 100.872C249.08 101.885 248.794 102.813 248.267 103.656C247.764 104.487 246.944 105.174 245.808 105.718C244.52 106.335 243.227 106.519 241.929 106.271C240.63 106.024 239.39 105.345 238.206 104.235C237.06 103.138 236.016 101.605 235.073 99.6353Z" fill="url(#paint6_linear_3_144)"/>
<path d="M239.651 108.624L266.496 101.715L268.181 108.264L241.336 115.172L239.651 108.624ZM250.047 109.418L255.375 108.047L259.238 123.056L253.909 124.427L250.047 109.418ZM261.802 106.393L267.334 104.969L271.562 121.402L266.031 122.825L261.802 106.393Z" fill="url(#paint7_linear_3_144)"/>
<path d="M244.056 128.541L273.839 125.415L274.54 132.098L244.758 135.224L244.056 128.541Z" fill="url(#paint8_linear_3_144)"/>
<path d="M244.147 148.355C244.251 146.146 244.776 144.208 245.724 142.543C246.67 140.906 248.019 139.638 249.771 138.739C251.55 137.869 253.74 137.496 256.341 137.618C258.998 137.743 261.156 138.335 262.816 139.394C264.504 140.455 265.728 141.858 266.487 143.603C267.246 145.349 267.574 147.312 267.471 149.494C267.366 151.731 266.84 153.683 265.893 155.348C264.945 157.014 263.582 158.281 261.804 159.15C260.053 160.021 257.877 160.395 255.276 160.273C252.591 160.147 250.405 159.54 248.718 158.451C247.058 157.392 245.849 155.976 245.092 154.202C244.361 152.458 244.046 150.509 244.147 148.355ZM249.088 148.798C249.057 149.441 249.142 150.034 249.34 150.576C249.567 151.119 249.91 151.584 250.368 151.97C250.853 152.385 251.497 152.709 252.299 152.943C253.099 153.205 254.059 153.362 255.178 153.415C256.408 153.473 257.463 153.396 258.342 153.185C259.219 153.002 259.934 152.714 260.485 152.319C261.064 151.926 261.493 151.441 261.773 150.866C262.079 150.32 262.247 149.711 262.279 149.04C262.308 148.424 262.209 147.845 261.982 147.302C261.783 146.76 261.441 146.281 260.956 145.866C260.47 145.479 259.827 145.154 259.026 144.892C258.224 144.658 257.25 144.514 256.103 144.461C254.9 144.404 253.86 144.467 252.983 144.65C252.105 144.833 251.377 145.121 250.798 145.515C250.245 145.937 249.83 146.422 249.552 146.97C249.274 147.517 249.119 148.127 249.088 148.798Z" fill="url(#paint9_linear_3_144)"/>
<path d="M243.215 162.923L265.977 164.218L263.94 171.018L247.156 168.795L246.987 169.359L262.072 177.254L259.83 184.737L242.877 183.078L242.684 183.722L257.937 191.054L255.96 197.652L236.248 186.178L238.876 177.407L255.081 179.369L255.249 178.805L240.611 171.614L243.215 162.923Z" fill="url(#paint10_linear_3_144)"/>
<path d="M230.221 195.585L252.742 211.747L248.8 217.241L226.279 201.079L230.221 195.585ZM236.281 204.07L240.751 207.278L231.715 219.869L227.245 216.661L236.281 204.07ZM246.143 211.147L250.783 214.477L240.89 228.262L236.25 224.932L246.143 211.147Z" fill="url(#paint11_linear_3_144)"/>
<path d="M214.326 214.385C215.223 213.54 216.181 212.944 217.201 212.598C218.201 212.27 219.222 212.231 220.265 212.479C221.306 212.768 222.298 213.411 223.239 214.409C224.257 215.488 224.839 216.575 224.985 217.669C225.111 218.782 224.961 219.867 224.533 220.924C224.105 222.02 223.55 223.044 222.869 223.995C222.167 224.964 221.497 225.866 220.858 226.699C220.199 227.551 219.704 228.23 219.372 228.735C219.02 229.26 218.849 229.71 218.857 230.087C218.846 230.483 218.994 230.843 219.301 231.169C219.647 231.536 220.036 231.765 220.469 231.857C220.901 231.989 221.358 231.962 221.838 231.779C222.338 231.615 222.843 231.293 223.352 230.813C223.882 230.313 224.294 229.751 224.59 229.126C224.865 228.52 224.974 227.859 224.916 227.145C224.856 226.469 224.58 225.768 224.086 225.041L229.318 221.896C230.097 223.048 230.578 224.191 230.763 225.325C230.966 226.48 230.933 227.608 230.663 228.71C230.393 229.811 229.927 230.847 229.265 231.818C228.602 232.829 227.791 233.785 226.834 234.688C225.611 235.841 224.418 236.677 223.254 237.198C222.07 237.737 220.894 237.96 219.729 237.867C218.562 237.813 217.404 237.442 216.255 236.755C215.086 236.087 213.906 235.121 212.715 233.858L210.266 231.261C209.594 230.548 208.902 229.834 208.19 229.12C207.497 228.426 206.804 227.733 206.111 227.039C205.398 226.364 204.666 225.689 203.913 225.014L208.221 220.951C208.82 221.463 209.467 222.027 210.162 222.642C210.856 223.296 211.569 223.99 212.3 224.725L212.758 224.292C212.174 223.265 211.84 222.156 211.756 220.965C211.652 219.793 211.805 218.629 212.215 217.473C212.624 216.356 213.328 215.326 214.326 214.385ZM215.501 219.916C215.155 220.243 214.846 220.65 214.574 221.137C214.321 221.644 214.147 222.194 214.05 222.785C213.954 223.377 213.965 224.001 214.084 224.658C214.204 225.315 214.472 225.967 214.889 226.613L216.648 228.418L215.888 229.019C215.944 228.466 216.118 227.917 216.412 227.371C216.705 226.825 217.048 226.27 217.441 225.707C217.832 225.184 218.215 224.65 218.587 224.107C218.979 223.583 219.301 223.068 219.553 222.56C219.786 222.072 219.899 221.6 219.892 221.144C219.865 220.708 219.641 220.265 219.218 219.817C218.699 219.267 218.103 219.002 217.429 219.022C216.734 219.061 216.092 219.359 215.501 219.916Z" fill="url(#paint12_linear_3_144)"/>
<path d="M203.635 224.512L209.682 233.605L215.914 242.978L211.228 246.095L206.739 239.496L206.18 239.868C207.179 241.726 207.799 243.314 208.038 244.635C208.277 245.955 208.171 247.085 207.719 248.024C207.26 249.002 206.482 249.855 205.386 250.584C205.107 250.77 204.8 250.941 204.465 251.096C204.131 251.251 203.743 251.374 203.3 251.467L199.464 245.242C200.046 245.157 200.59 245.014 201.095 244.813C201.6 244.612 202.039 244.387 202.412 244.139C203.275 243.565 203.885 242.89 204.243 242.114C204.601 241.338 204.707 240.461 204.561 239.482C204.391 238.519 203.969 237.454 203.295 236.289L197.97 228.28L203.635 224.512Z" fill="url(#paint13_linear_3_144)"/>
<path d="M191.08 232.39L204.581 259.12L198.582 262.149L185.081 235.419L191.08 232.39Z" fill="url(#paint14_linear_3_144)"/>
<path d="M172.486 239.536C174.319 238.927 176.011 238.645 177.56 238.691C179.083 238.745 180.464 239.083 181.703 239.704C182.924 240.361 183.99 241.26 184.901 242.404C185.785 243.555 186.497 244.942 187.035 246.563C187.565 248.157 187.838 249.733 187.854 251.292C187.87 252.85 187.612 254.293 187.079 255.621C186.52 256.957 185.674 258.139 184.539 259.165C183.405 260.191 181.987 260.986 180.287 261.551C178.56 262.125 176.961 262.331 175.492 262.171C174.004 262.045 172.668 261.575 171.482 260.759C170.296 259.943 169.292 258.831 168.47 257.422C167.63 256.049 166.995 254.401 166.563 252.479L182.572 246.983L183.698 250.371L171.794 254.503L172.978 252.207C173.242 253.535 173.657 254.563 174.223 255.289C174.798 256.043 175.457 256.517 176.201 256.713C176.953 256.935 177.741 256.909 178.565 256.635C179.522 256.317 180.248 255.796 180.745 255.07C181.241 254.344 181.503 253.446 181.531 252.375C181.567 251.33 181.361 250.13 180.91 248.775C180.195 246.622 179.249 245.196 178.072 244.495C176.869 243.803 175.523 243.705 174.035 244.199C173.344 244.429 172.804 244.711 172.414 245.048C172.024 245.384 171.731 245.746 171.536 246.136C171.35 246.552 171.256 246.981 171.256 247.424C171.229 247.875 171.259 248.323 171.348 248.765L165.343 249.742C165.132 248.75 165.084 247.763 165.2 246.78C165.298 245.833 165.623 244.899 166.172 243.979C166.705 243.094 167.476 242.262 168.486 241.484C169.505 240.733 170.838 240.083 172.486 239.536Z" fill="url(#paint15_linear_3_144)"/>
<path d="M163.328 242.859L164.849 255.832L165.911 264.884L160.404 265.53L159.502 258.193L158.834 258.271C158.719 260.174 158.396 261.748 157.866 262.994C157.335 264.24 156.6 265.186 155.661 265.832C154.697 266.509 153.52 266.929 152.13 267.092C150.851 267.242 149.74 267.147 148.798 266.806C147.856 266.465 147.049 265.954 146.377 265.271C145.708 264.617 145.165 263.835 144.748 262.925C144.332 262.015 144.009 261.067 143.78 260.079C143.524 259.094 143.34 258.128 143.229 257.183L141.845 245.378L148.603 244.586L149.894 255.598C149.953 256.099 150.049 256.679 150.183 257.34C150.289 258.004 150.491 258.643 150.788 259.257C151.086 259.87 151.495 260.358 152.017 260.72C152.539 261.081 153.231 261.212 154.093 261.111C155.066 260.997 155.851 260.594 156.446 259.904C157.042 259.214 157.452 258.264 157.677 257.054C157.877 255.874 157.882 254.478 157.693 252.865L156.612 243.646L163.328 242.859Z" fill="url(#paint16_linear_3_144)"/>
<path d="M132.581 243.545C134.06 243.664 135.402 243.913 136.608 244.291C137.813 244.669 138.855 245.161 139.733 245.765C140.581 246.396 141.251 247.152 141.741 248.034C142.204 248.914 142.446 249.917 142.468 251.042L136.977 252.243C136.89 251.589 136.644 250.98 136.24 250.413C135.836 249.847 135.27 249.38 134.541 249.012C133.81 248.672 132.901 248.458 131.812 248.371C130.779 248.287 129.944 248.374 129.305 248.632C128.638 248.887 128.279 249.336 128.227 249.977C128.193 250.396 128.32 250.743 128.607 251.019C128.893 251.295 129.364 251.558 130.018 251.807C130.67 252.085 131.517 252.378 132.559 252.687C133.709 253.06 134.83 253.446 135.921 253.843C137.011 254.268 137.982 254.768 138.834 255.342C139.684 255.944 140.342 256.672 140.807 257.524C141.272 258.376 141.455 259.416 141.356 260.644C141.241 262.067 140.765 263.265 139.928 264.237C139.063 265.206 137.896 265.927 136.425 266.398C134.926 266.867 133.172 267.02 131.163 266.858C129.377 266.714 127.792 266.333 126.409 265.716C125.024 265.127 123.926 264.294 123.114 263.217C122.272 262.166 121.828 260.88 121.782 259.359L127.423 258.382C127.424 259.056 127.601 259.646 127.954 260.152C128.304 260.686 128.79 261.105 129.412 261.408C130.031 261.739 130.773 261.939 131.639 262.009C132.671 262.092 133.495 261.976 134.111 261.661C134.696 261.371 135.01 260.961 135.053 260.43C135.089 259.984 134.938 259.592 134.6 259.256C134.231 258.945 133.692 258.663 132.982 258.409C132.273 258.155 131.397 257.86 130.357 257.523C129.312 257.242 128.286 256.907 127.278 256.516C126.242 256.124 125.298 255.64 124.446 255.066C123.591 254.519 122.932 253.806 122.469 252.926C122.004 252.074 121.823 251.02 121.924 249.764C122.039 248.34 122.53 247.13 123.397 246.132C124.264 245.135 125.475 244.404 127.029 243.94C128.553 243.501 130.404 243.369 132.581 243.545Z" fill="url(#paint17_linear_3_144)"/>
<path d="M122.524 242.989L115.018 269.673L108.509 267.843L116.014 241.158L122.524 242.989ZM116.617 251.58L115.127 256.877L100.208 252.681L101.698 247.384L116.617 251.58ZM113.33 263.265L111.784 268.764L95.4494 264.169L96.996 258.671L113.33 263.265Z" fill="url(#paint18_linear_3_144)"/>
<path d="M103.079 236.793L90.8096 264.11L84.6796 261.356L96.9493 234.039L103.079 236.793Z" fill="url(#paint19_linear_3_144)"/>
<path d="M86.0718 226.997C87.9289 228.198 89.3387 229.628 90.3011 231.284C91.24 232.926 91.6569 234.73 91.5518 236.696C91.408 238.671 90.6287 240.751 89.2141 242.937C87.769 245.17 86.1711 246.738 84.4204 247.639C82.6546 248.565 80.8265 248.916 78.9362 248.693C77.0458 248.47 75.1839 247.766 73.3503 246.579C71.4697 245.362 70.0481 243.926 69.0857 242.269C68.1233 240.612 67.714 238.797 67.8578 236.822C67.9865 234.871 68.7581 232.802 70.1728 230.616C71.6331 228.359 73.2579 226.776 75.0473 225.866C76.7979 224.965 78.6302 224.633 80.544 224.871C82.4191 225.117 84.2617 225.825 86.0718 226.997ZM83.2031 231.044C82.6624 230.694 82.1079 230.468 81.5396 230.367C80.956 230.29 80.3821 230.352 79.818 230.554C79.215 230.764 78.6107 231.157 78.0051 231.732C77.3759 232.292 76.757 233.042 76.1486 233.983C75.4793 235.017 75.0147 235.967 74.7547 236.833C74.4712 237.683 74.3612 238.446 74.4248 239.12C74.4732 239.819 74.6758 240.433 75.0326 240.964C75.3506 241.504 75.7917 241.956 76.3559 242.321C76.8731 242.656 77.4234 242.862 78.007 242.939C78.5753 243.04 79.1609 242.986 79.7639 242.775C80.3433 242.55 80.9476 242.157 81.5768 241.597C82.1824 241.022 82.7971 240.252 83.4208 239.289C84.0749 238.278 84.5437 237.347 84.8271 236.497C85.1106 235.646 85.2282 234.872 85.1798 234.174C85.0927 233.484 84.8825 232.881 84.5493 232.365C84.216 231.849 83.7673 231.409 83.2031 231.044Z" fill="url(#paint20_linear_3_144)"/>
<path d="M73.953 218.851L61.4081 237.888L56.5497 232.713L66.8964 219.312L66.4939 218.883L52.0938 227.967L46.7466 222.272L56.6909 208.442L56.2309 207.952L42.2332 217.465L37.5186 212.443L57.3367 201.153L63.6037 207.828L53.7738 220.859L54.1763 221.288L67.7434 212.237L73.953 218.851Z" fill="url(#paint21_linear_3_144)"/>
<path d="M52.1706 191.199L26.9017 202.596L24.1217 196.432L49.3905 185.035L52.1706 191.199ZM41.792 192.194L36.7765 194.456L30.4047 180.329L35.4202 178.066L41.792 192.194ZM30.7272 197.184L25.5203 199.533L18.5442 184.065L23.7512 181.717L30.7272 197.184Z" fill="url(#paint22_linear_3_144)"/>
<path d="M43.8807 168.035C44.1604 169.235 44.1934 170.363 43.9797 171.419C43.7595 172.448 43.2799 173.35 42.5408 174.127C41.7681 174.882 40.7137 175.415 39.3775 175.727C37.9323 176.064 36.7003 176.02 35.6814 175.596C34.6562 175.145 33.7943 174.47 33.0954 173.569C32.363 172.647 31.7574 171.652 31.2786 170.585C30.7934 169.491 30.3514 168.458 29.9525 167.488C29.5473 166.489 29.2098 165.72 28.9399 165.179C28.6637 164.611 28.3607 164.236 28.0308 164.054C27.6945 163.845 27.3082 163.791 26.8719 163.893C26.3811 164.008 25.987 164.229 25.6897 164.557C25.3589 164.864 25.152 165.272 25.0692 165.78C24.9591 166.294 24.9836 166.892 25.1425 167.574C25.3078 168.283 25.5863 168.922 25.9779 169.492C26.3632 170.035 26.8794 170.461 27.5265 170.77C28.14 171.058 28.8853 171.172 29.7624 171.111L29.8486 177.215C28.4616 177.309 27.2314 177.15 26.158 176.739C25.0574 176.334 24.0991 175.738 23.283 174.951C22.4669 174.164 21.8058 173.24 21.2997 172.179C20.76 171.097 20.3408 169.915 20.0419 168.634C19.6605 166.998 19.5376 165.546 19.6732 164.278C19.8025 162.983 20.2008 161.855 20.8681 160.894C21.5018 159.913 22.4045 159.098 23.5762 158.451C24.7415 157.777 26.1695 157.243 27.8602 156.849L31.3369 156.038C32.2914 155.816 33.2562 155.576 34.2315 155.32C35.1796 155.07 36.1276 154.821 37.0757 154.571C38.0173 154.294 38.9695 154 39.9321 153.689L41.2768 159.456C40.5323 159.716 39.7197 159.992 38.8389 160.284C37.9245 160.554 36.966 160.821 35.9634 161.083L36.1064 161.697C37.288 161.709 38.4146 161.978 39.4861 162.505C40.5513 163.004 41.4805 163.722 42.2739 164.658C43.0336 165.573 43.5692 166.699 43.8807 168.035ZM38.5093 166.269C38.4012 165.805 38.205 165.333 37.9206 164.853C37.6089 164.38 37.2218 163.953 36.7592 163.572C36.2966 163.191 35.7513 162.887 35.1233 162.659C34.4953 162.432 33.7972 162.336 33.0292 162.371L30.5845 162.984L30.447 162.025C30.8969 162.351 31.284 162.778 31.6084 163.306C31.9328 163.834 32.2394 164.41 32.5284 165.033C32.7837 165.634 33.0526 166.233 33.3352 166.828C33.5905 167.43 33.874 167.968 34.1857 168.441C34.491 168.888 34.8422 169.223 35.2394 169.446C35.6302 169.643 36.1255 169.671 36.7254 169.531C37.4617 169.359 37.9908 168.977 38.3126 168.385C38.6281 167.765 38.6937 167.06 38.5093 166.269Z" fill="url(#paint23_linear_3_144)"/>
<path d="M40.5193 153.756L29.6186 154.405L18.3825 155.075L18.0478 149.457L26.0087 148.898L25.9687 148.228C23.8608 148.157 22.1761 147.893 20.9146 147.435C19.6532 146.977 18.7303 146.317 18.1459 145.454C17.532 144.565 17.1859 143.464 17.1076 142.15C17.0876 141.814 17.0947 141.463 17.129 141.097C17.1632 140.73 17.2517 140.332 17.3945 139.903L24.7045 139.72C24.4846 140.266 24.3346 140.808 24.2544 141.345C24.1742 141.883 24.1475 142.376 24.1741 142.823C24.2357 143.857 24.5118 144.724 25.0023 145.424C25.4928 146.124 26.1977 146.657 27.1171 147.023C28.0349 147.361 29.167 147.532 30.5137 147.536L40.1146 146.964L40.5193 153.756Z" fill="url(#paint24_linear_3_144)"/>
<path d="M40.0301 138.739L10.1372 136.958L10.5369 130.25L40.4299 132.031L40.0301 138.739Z" fill="url(#paint25_linear_3_144)"/>
<path d="M43.1872 119.119C42.794 121.011 42.1888 122.615 41.3716 123.932C40.5602 125.222 39.575 126.247 38.416 127.007C37.2354 127.734 35.9222 128.205 34.4763 128.419C33.0361 128.606 31.4799 128.525 29.8077 128.178C28.1628 127.836 26.6624 127.281 25.3063 126.513C23.9502 125.745 22.8316 124.797 21.9505 123.671C21.0751 122.516 20.4783 121.191 20.1601 119.695C19.8419 118.199 19.8651 116.574 20.2298 114.819C20.6002 113.037 21.2237 111.551 22.1003 110.36C22.9552 109.137 24.033 108.217 25.3336 107.601C26.6342 106.985 28.1 106.674 29.731 106.67C31.3402 106.633 33.0844 106.91 34.9635 107.5L31.6835 124.106L28.1882 123.38L30.5879 111.009L31.98 113.186C30.6983 112.748 29.6012 112.592 28.6887 112.717C27.7488 112.836 27.0077 113.168 26.4654 113.713C25.8957 114.252 25.5225 114.947 25.3459 115.797C25.1408 116.784 25.2274 117.674 25.6058 118.468C25.9842 119.261 26.6299 119.939 27.5427 120.5C28.4281 121.056 29.5699 121.479 30.968 121.77C33.1885 122.231 34.8971 122.129 36.0938 121.463C37.2962 120.769 38.0569 119.654 38.376 118.119C38.5241 117.406 38.5507 116.797 38.4557 116.291C38.3606 115.785 38.1937 115.35 37.9548 114.986C37.6885 114.616 37.364 114.32 36.9813 114.097C36.6043 113.847 36.2021 113.649 35.7749 113.503L37.9429 107.819C38.9071 108.134 39.785 108.588 40.5768 109.182C41.3468 109.742 41.9919 110.491 42.512 111.429C43.0104 112.333 43.3427 113.417 43.5089 114.682C43.6477 115.94 43.5404 117.419 43.1872 119.119Z" fill="url(#paint26_linear_3_144)"/>
<path d="M44.9186 109.49L32.9383 104.285L24.579 100.654L26.788 95.5689L33.5846 98.4757L33.8524 97.8594C32.2656 96.8037 31.0668 95.7334 30.2559 94.6485C29.4451 93.5636 28.9965 92.4528 28.9102 91.3163C28.8093 90.143 29.0378 88.9143 29.5957 87.6302C30.1089 86.4489 30.7494 85.5366 31.5173 84.8933C32.2852 84.25 33.133 83.8093 34.0607 83.5712C34.9627 83.322 35.9117 83.2458 36.9076 83.3426C37.9034 83.4394 38.886 83.6373 39.8551 83.9362C40.8354 84.2094 41.7622 84.5357 42.6353 84.915L53.5371 89.651L50.826 95.8916L40.6562 91.4736C40.1939 91.2727 39.6435 91.0641 39.0048 90.8477C38.3773 90.6057 37.7236 90.459 37.0437 90.4079C36.3637 90.3567 35.7363 90.4658 35.1615 90.735C34.5866 91.0043 34.1262 91.5369 33.7804 92.3331C33.3899 93.2319 33.3432 94.1122 33.6405 94.974C33.9377 95.8358 34.5531 96.6679 35.4867 97.4704C36.4058 98.236 37.61 98.9423 39.0996 99.5894L47.6129 103.288L44.9186 109.49Z" fill="url(#paint27_linear_3_144)"/>
<path d="M59.6834 82.7498C58.836 83.968 57.9455 85.0028 57.0121 85.8542C56.0787 86.7057 55.1298 87.3587 54.1654 87.8134C53.194 88.2291 52.2036 88.427 51.1942 88.407C50.2009 88.364 49.2125 88.0687 48.2292 87.521L49.9547 82.1724C50.5633 82.4253 51.2138 82.5197 51.9064 82.4558C52.599 82.3919 53.2875 82.1375 53.9721 81.6928C54.6337 81.2321 55.2763 80.5536 55.8999 79.6572C56.4916 78.8067 56.8368 78.0407 56.9358 77.3591C57.0507 76.6546 56.8439 76.1184 56.3152 75.7507C55.9705 75.5108 55.6067 75.4453 55.2239 75.5543C54.8412 75.6632 54.3775 75.9375 53.8328 76.3772C53.2651 76.8009 52.5856 77.3855 51.7941 78.1311C50.8926 78.9365 49.9957 79.711 49.1032 80.4545C48.1878 81.182 47.2674 81.7696 46.342 82.2173C45.3936 82.649 44.4342 82.8514 43.4638 82.8244C42.4934 82.7974 41.5025 82.4321 40.4912 81.7285C39.319 80.913 38.5235 79.8992 38.1048 78.6869C37.7021 77.4517 37.6671 76.0801 37.9999 74.5721C38.3487 73.041 39.0988 71.4481 40.2501 69.7931C41.2735 68.3221 42.3998 67.1444 43.629 66.26C44.8352 65.3596 46.1079 64.8294 47.4471 64.6696C48.7792 64.4707 50.1139 64.7341 51.451 65.4596L49.4572 70.8262C48.8736 70.4884 48.2745 70.3444 47.6598 70.3944C47.0223 70.4284 46.4161 70.6377 45.8415 71.0225C45.2439 71.3912 44.6972 71.9319 44.2015 72.6444C43.6099 73.4949 43.2956 74.2654 43.2586 74.9559C43.2146 75.6075 43.4109 76.0852 43.8477 76.389C44.2154 76.6449 44.6297 76.7113 45.0904 76.5884C45.5441 76.4265 46.0593 76.1027 46.6359 75.6171C47.2125 75.1314 47.9081 74.5238 48.7226 73.7943C49.4911 73.0328 50.2976 72.3147 51.1421 71.6402C52.0026 70.9426 52.8955 70.37 53.8209 69.9223C54.7234 69.4586 55.6713 69.2483 56.6646 69.2913C57.635 69.3183 58.6374 69.6916 59.6717 70.4111C60.8439 71.2266 61.6429 72.26 62.0686 73.5112C62.4943 74.7624 62.5168 76.1765 62.136 77.7535C61.7482 79.2915 60.9307 80.9569 59.6834 82.7498Z" fill="url(#paint28_linear_3_144)"/>
<path d="M65.2535 74.3104L45.9467 54.4196L50.7988 49.7099L70.1057 69.6007L65.2535 74.3104ZM60.7901 64.8879L56.958 60.9399L68.0788 50.1456L71.9109 54.0936L60.7901 64.8879ZM52.336 56.1781L48.3577 52.0794L60.5332 40.2613L64.5116 44.36L52.336 56.1781Z" fill="url(#paint29_linear_3_144)"/>
<path d="M80.4044 60.5731L62.9078 36.2701L68.3615 32.3438L85.8581 56.6468L80.4044 60.5731Z" fill="url(#paint30_linear_3_144)"/>
<path d="M97.3837 50.7628C95.4139 51.7692 93.4711 52.2745 91.5552 52.2786C89.6642 52.27 87.8938 51.7281 86.2441 50.653C84.6065 49.5402 83.1953 47.8243 82.0106 45.5055C80.8004 43.1367 80.2431 40.9689 80.3387 39.002C80.4215 37.0103 81.0324 35.2518 82.1712 33.7267C83.31 32.2016 84.8519 30.9422 86.7967 29.9486C88.7915 28.9294 90.7468 28.4178 92.6627 28.4137C94.5786 28.4096 96.3553 28.9639 97.9929 30.0767C99.6178 31.1645 101.023 32.8679 102.207 35.1868C103.43 37.5805 103.988 39.7796 103.88 41.7841C103.784 43.751 103.155 45.5033 101.991 47.0412C100.839 48.5414 99.3037 49.7819 97.3837 50.7628ZM95.3159 46.2539C95.8894 45.9609 96.3621 45.5936 96.7339 45.1521C97.093 44.6857 97.3263 44.1577 97.4339 43.5682C97.5537 42.9411 97.5161 42.2213 97.3213 41.4091C97.1513 40.5841 96.8115 39.6729 96.302 38.6755C95.7414 37.5784 95.1515 36.7007 94.5322 36.0424C93.9378 35.3713 93.3326 34.8945 92.7165 34.6118C92.0877 34.3042 91.4542 34.172 90.8159 34.2151C90.1899 34.2205 89.5776 34.3761 88.9792 34.6819C88.4306 34.9621 87.9768 35.3355 87.6177 35.8019C87.2459 36.2434 87.0001 36.7778 86.8803 37.405C86.7855 38.0194 86.823 38.7391 86.993 39.5641C87.1879 40.3764 87.5465 41.2936 88.0688 42.3159C88.6166 43.3881 89.1876 44.2597 89.782 44.9308C90.3764 45.6018 90.988 46.0911 91.6168 46.3987C92.2578 46.6687 92.885 46.7884 93.4983 46.7581C94.1116 46.7277 94.7175 46.5596 95.3159 46.2539Z" fill="url(#paint31_linear_3_144)"/>
<path d="M110.509 44.3506L100.366 23.9325L107.282 22.3364L113.66 38.0199L114.233 37.8877L113.625 20.8726L121.237 19.1159L128.188 34.6671L128.843 34.516L127.662 17.6331L134.374 16.0843L134.163 38.8918L125.242 40.9506L118.924 25.8999L118.351 26.0322L119.349 42.3106L110.509 44.3506Z" fill="url(#paint32_linear_3_144)"/>
    <animateTransform
      attributeName="transform"
      attributeType="XML"
      type="rotate"
      from="0 142.5 142"
      to="360 142.5 142"
      dur="12s"
      repeatCount="indefinite"
    />
  </g>

<defs>
<linearGradient id="paint0_linear_3_144" x1="156.024" y1="1.33758" x2="152.704" y2="36.1296" gradientUnits="userSpaceOnUse">
<stop stop-color="#FF5962"/>
<stop offset="1" stop-color="#DC2750"/>
</linearGradient>
<linearGradient id="paint1_linear_3_144" x1="182.803" y1="6.53879" x2="172.848" y2="40.041" gradientUnits="userSpaceOnUse">
<stop stop-color="#FF5962"/>
<stop offset="1" stop-color="#DC2750"/>
</linearGradient>
<linearGradient id="paint2_linear_3_144" x1="205.16" y1="15.3215" x2="189.653" y2="46.643" gradientUnits="userSpaceOnUse">
<stop stop-color="#FF5962"/>
<stop offset="1" stop-color="#DC2750"/>
</linearGradient>
<linearGradient id="paint3_linear_3_144" x1="219.773" y1="23.6756" x2="200.652" y2="52.9311" gradientUnits="userSpaceOnUse">
<stop stop-color="#FF5962"/>
<stop offset="1" stop-color="#DC2750"/>
</linearGradient>
<linearGradient id="paint4_linear_3_144" x1="236.193" y1="36.2046" x2="213.026" y2="62.3736" gradientUnits="userSpaceOnUse">
<stop stop-color="#FF5962"/>
<stop offset="1" stop-color="#DC2750"/>
</linearGradient>
<linearGradient id="paint5_linear_3_144" x1="255.626" y1="57.2679" x2="227.678" y2="78.2545" gradientUnits="userSpaceOnUse">
<stop stop-color="#FF5962"/>
<stop offset="1" stop-color="#DC2750"/>
</linearGradient>
<linearGradient id="paint6_linear_3_144" x1="270.099" y1="81.1183" x2="238.575" y2="96.2107" gradientUnits="userSpaceOnUse">
<stop stop-color="#FF5962"/>
<stop offset="1" stop-color="#DC2750"/>
</linearGradient>
<linearGradient id="paint7_linear_3_144" x1="279.456" y1="106.813" x2="245.608" y2="115.523" gradientUnits="userSpaceOnUse">
<stop stop-color="#FF5962"/>
<stop offset="1" stop-color="#DC2750"/>
</linearGradient>
<linearGradient id="paint8_linear_3_144" x1="283.135" y1="127.248" x2="248.376" y2="130.897" gradientUnits="userSpaceOnUse">
<stop stop-color="#FF5962"/>
<stop offset="1" stop-color="#DC2750"/>
</linearGradient>
<linearGradient id="paint9_linear_3_144" x1="283.755" y1="148.87" x2="248.843" y2="147.229" gradientUnits="userSpaceOnUse">
<stop stop-color="#FF5962"/>
<stop offset="1" stop-color="#DC2750"/>
</linearGradient>
<linearGradient id="paint10_linear_3_144" x1="277.977" y1="182.786" x2="244.497" y2="172.756" gradientUnits="userSpaceOnUse">
<stop stop-color="#FF5962"/>
<stop offset="1" stop-color="#DC2750"/>
</linearGradient>
<linearGradient id="paint11_linear_3_144" x1="257.441" y1="224.546" x2="229.046" y2="204.169" gradientUnits="userSpaceOnUse">
<stop stop-color="#FF5962"/>
<stop offset="1" stop-color="#DC2750"/>
</linearGradient>
<linearGradient id="paint12_linear_3_144" x1="239.494" y1="245.066" x2="215.516" y2="219.638" gradientUnits="userSpaceOnUse">
<stop stop-color="#FF5962"/>
<stop offset="1" stop-color="#DC2750"/>
</linearGradient>
<linearGradient id="paint13_linear_3_144" x1="220.708" y1="259.995" x2="201.356" y2="230.891" gradientUnits="userSpaceOnUse">
<stop stop-color="#FF5962"/>
<stop offset="1" stop-color="#DC2750"/>
</linearGradient>
<linearGradient id="paint14_linear_3_144" x1="206.169" y1="268.461" x2="190.412" y2="237.264" gradientUnits="userSpaceOnUse">
<stop stop-color="#FF5962"/>
<stop offset="1" stop-color="#DC2750"/>
</linearGradient>
<linearGradient id="paint15_linear_3_144" x1="187.085" y1="276.401" x2="176.065" y2="243.234" gradientUnits="userSpaceOnUse">
<stop stop-color="#FF5962"/>
<stop offset="1" stop-color="#DC2750"/>
</linearGradient>
<linearGradient id="paint16_linear_3_144" x1="159.067" y1="282.626" x2="154.997" y2="247.914" gradientUnits="userSpaceOnUse">
<stop stop-color="#FF5962"/>
<stop offset="1" stop-color="#DC2750"/>
</linearGradient>
<linearGradient id="paint17_linear_3_144" x1="130.968" y1="283.131" x2="133.779" y2="248.295" gradientUnits="userSpaceOnUse">
<stop stop-color="#FF5962"/>
<stop offset="1" stop-color="#DC2750"/>
</linearGradient>
<linearGradient id="paint18_linear_3_144" x1="104.103" y1="278.321" x2="113.565" y2="244.676" gradientUnits="userSpaceOnUse">
<stop stop-color="#FF5962"/>
<stop offset="1" stop-color="#DC2750"/>
</linearGradient>
<linearGradient id="paint19_linear_3_144" x1="84.5516" y1="271.224" x2="98.8717" y2="239.343" gradientUnits="userSpaceOnUse">
<stop stop-color="#FF5962"/>
<stop offset="1" stop-color="#DC2750"/>
</linearGradient>
<linearGradient id="paint20_linear_3_144" x1="65.6952" y1="260.965" x2="84.6823" y2="231.622" gradientUnits="userSpaceOnUse">
<stop stop-color="#FF5962"/>
<stop offset="1" stop-color="#DC2750"/>
</linearGradient>
<linearGradient id="paint21_linear_3_144" x1="39.3256" y1="238.947" x2="64.8054" y2="215.025" gradientUnits="userSpaceOnUse">
<stop stop-color="#FF5962"/>
<stop offset="1" stop-color="#DC2750"/>
</linearGradient>
<linearGradient id="paint22_linear_3_144" x1="13.4704" y1="200.252" x2="45.33" y2="185.883" gradientUnits="userSpaceOnUse">
<stop stop-color="#FF5962"/>
<stop offset="1" stop-color="#DC2750"/>
</linearGradient>
<linearGradient id="paint23_linear_3_144" x1="4.70486" y1="174.357" x2="38.742" y2="166.421" gradientUnits="userSpaceOnUse">
<stop stop-color="#FF5962"/>
<stop offset="1" stop-color="#DC2750"/>
</linearGradient>
<linearGradient id="paint24_linear_3_144" x1="1.26537" y1="150.655" x2="36.1535" y2="148.576" gradientUnits="userSpaceOnUse">
<stop stop-color="#FF5962"/>
<stop offset="1" stop-color="#DC2750"/>
</linearGradient>
<linearGradient id="paint25_linear_3_144" x1="1.26537" y1="133.631" x2="36.1535" y2="135.709" gradientUnits="userSpaceOnUse">
<stop stop-color="#FF5962"/>
<stop offset="1" stop-color="#DC2750"/>
</linearGradient>
<linearGradient id="paint26_linear_3_144" x1="3.97357" y1="113.247" x2="38.1922" y2="120.359" gradientUnits="userSpaceOnUse">
<stop stop-color="#FF5962"/>
<stop offset="1" stop-color="#DC2750"/>
</linearGradient>
<linearGradient id="paint27_linear_3_144" x1="12.6796" y1="85.8214" x2="44.7354" y2="99.7472" gradientUnits="userSpaceOnUse">
<stop stop-color="#FF5962"/>
<stop offset="1" stop-color="#DC2750"/>
</linearGradient>
<linearGradient id="paint28_linear_3_144" x1="26.2857" y1="61.4359" x2="54.9759" y2="81.3951" gradientUnits="userSpaceOnUse">
<stop stop-color="#FF5962"/>
<stop offset="1" stop-color="#DC2750"/>
</linearGradient>
<linearGradient id="paint29_linear_3_144" x1="43.9502" y1="40.6376" x2="68.2927" y2="65.7163" gradientUnits="userSpaceOnUse">
<stop stop-color="#FF5962"/>
<stop offset="1" stop-color="#DC2750"/>
</linearGradient>
<linearGradient id="paint30_linear_3_144" x1="59.8849" y1="27.2901" x2="80.3052" y2="55.6541" gradientUnits="userSpaceOnUse">
<stop stop-color="#FF5962"/>
<stop offset="1" stop-color="#DC2750"/>
</linearGradient>
<linearGradient id="paint31_linear_3_144" x1="78.1738" y1="16.1218" x2="94.0749" y2="47.245" gradientUnits="userSpaceOnUse">
<stop stop-color="#FF5962"/>
<stop offset="1" stop-color="#DC2750"/>
</linearGradient>
<linearGradient id="paint32_linear_3_144" x1="110.558" y1="4.31421" x2="118.417" y2="38.3691" gradientUnits="userSpaceOnUse">
<stop stop-color="#FF5962"/>
<stop offset="1" stop-color="#DC2750"/>
</linearGradient>
</defs>
</svg>
